<svg width="200" height="200" viewBox="0 0 200 200" fill="none" xmlns="http://www.w3.org/2000/svg">
<rect x="5" y="5" width="190" height="190" rx="45" fill="url(#paint0_linear_1_9775)"/>
<mask id="mask0_1_9775" style="mask-type:alpha" maskUnits="userSpaceOnUse" x="5" y="5" width="190" height="190">
<rect x="5" y="5" width="190" height="190" rx="45" fill="#D9D9D9"/>
</mask>
<g mask="url(#mask0_1_9775)">
<path d="M-63.4838 123.05L-76.0654 85.8581L-61.2521 77.3056C-56.7747 74.7206 -52.7702 73.7 -49.2386 74.2437C-45.6752 74.769 -42.8851 76.7782 -40.8684 80.2711C-39.2551 83.0655 -38.5329 85.9298 -38.7017 88.864C-38.8388 91.7799 -39.8384 94.5586 -41.7004 97.2002C-43.5306 99.8234 -46.1605 102.125 -49.59 104.105L-60.3547 110.32L-57.1856 101.949L-52.2428 116.56L-63.4838 123.05ZM-56.7014 103.448L-63.5973 100.634L-54.0234 95.1061C-52.4674 94.2078 -51.4808 93.1301 -51.0634 91.8729C-50.6644 90.5841 -50.8682 89.2411 -51.6749 87.8439C-52.3715 86.6372 -53.2476 85.9999 -54.303 85.9318C-55.345 85.8136 -56.517 86.1304 -57.8189 86.8821L-66.5355 91.9146L-63.5589 83.2101L-56.7014 103.448ZM-17.048 96.8755C-18.7628 97.8655 -20.7116 98.3767 -22.8945 98.4092C-25.0957 98.4099 -27.2494 97.8328 -29.3558 96.6779C-31.4486 95.4729 -33.2376 93.5843 -34.7226 91.0122C-35.9693 88.8529 -36.7499 86.6575 -37.0646 84.4258C-37.3792 82.1941 -37.2865 80.0448 -36.7863 77.9778C-36.2727 75.8607 -35.4011 73.9603 -34.1716 72.2766C-32.9286 70.5429 -31.3704 69.1351 -29.4969 68.0535C-27.4646 66.8801 -25.4639 66.2754 -23.4948 66.2394C-21.5257 66.2033 -19.6552 66.9864 -17.8835 68.5885C-16.0983 70.1405 -14.4856 72.787 -13.0454 76.5282C-11.8767 79.5792 -11.2454 82.4325 -11.1517 85.0881C-11.0263 87.7254 -11.4458 90.0422 -12.4102 92.0385C-13.3745 94.0348 -14.9205 95.6471 -17.048 96.8755ZM-17.8944 86.0596C-16.9417 85.5096 -16.2536 84.7948 -15.83 83.9151C-15.4248 83.0037 -15.2883 81.9935 -15.4206 80.8843C-15.5211 79.7569 -15.9197 78.5898 -16.6164 77.3832C-17.313 76.1765 -18.2306 75.3938 -19.3692 75.035C-20.4761 74.6579 -21.6328 74.8177 -22.8395 75.5144C-23.7604 76.046 -24.4393 76.7767 -24.8763 77.7065C-25.2999 78.5861 -25.4615 79.5897 -25.3609 80.7171C-25.2286 81.8262 -24.8142 82.9841 -24.1175 84.1908C-23.4208 85.3974 -22.5191 86.1893 -21.4122 86.5664C-20.2736 86.9252 -19.101 86.7563 -17.8944 86.0596ZM-10.7499 92.6042L-12.0704 88.6669L-15.8081 78.1232L-19.8718 67.8946L-21.2198 63.9098L-10.4551 57.6948L-0.604408 86.7467L-10.7499 92.6042ZM3.77399 84.2188L-6.07669 55.1669L4.0688 49.3094L6.85473 57.5448L4.64447 56.0265C4.53245 53.3391 5.1724 51.0009 6.56432 49.0118C7.988 47.0043 9.93825 45.2856 12.4151 43.8556L16.0098 54.4819C15.5286 54.675 15.0883 54.8657 14.6889 55.054C14.3213 55.2239 13.9469 55.4189 13.5659 55.6389C11.7876 56.6655 10.572 57.8966 9.91893 59.3321C9.29762 60.7493 9.32811 62.4888 10.0104 64.5505L14.5387 78.0038L3.77399 84.2188ZM38.6023 64.7458C36.3795 66.0291 34.2517 66.7071 32.2191 66.7798C30.1865 66.8526 28.3943 66.2784 26.8426 65.0574C25.2725 63.8046 24.0589 61.9226 23.2018 59.4113L14.9962 35.1889L25.7609 28.9739L33.939 53.1487C34.2935 54.1295 34.7646 54.7254 35.3523 54.9366C35.9399 55.1477 36.5989 55.0425 37.3292 54.6208C37.7738 54.3641 38.1432 54.0873 38.4375 53.7904C38.7452 53.4434 39.0505 53.0554 39.3533 52.6266L44.7717 59.1516C44.099 60.2597 43.2076 61.2824 42.0975 62.2197C41.0375 63.1704 39.8724 64.0124 38.6023 64.7458ZM17.1205 54.1582L14.1548 45.3915L33.8266 34.034L36.7922 42.8007L17.1205 54.1582ZM56.8417 66.5359C55.4127 67.3609 53.8805 67.9703 52.245 68.3642C50.5777 68.7764 49.1229 68.8966 47.8805 68.7247L48.2309 58.5516C49.0091 58.6527 49.8049 58.6378 50.6184 58.5068C51.4319 58.3759 52.2038 58.0996 52.9342 57.6779C53.7915 57.1829 54.371 56.5732 54.6725 55.8487C54.9923 55.156 55.1612 54.2752 55.1792 53.2063L55.2513 49.4812L55.456 47.9658L55.6228 19.5447L66.1493 13.4672L65.4902 49.2855C65.4362 52.4921 65.1115 55.1564 64.5161 57.2784C63.9207 59.4004 62.9849 61.1897 61.7089 62.6462C60.4646 64.0843 58.8422 65.3809 56.8417 66.5359ZM55.6821 55.8374L34.0458 32.0022L44.7628 25.8147L60.336 43.8782L55.6821 55.8374Z" fill="white" fill-opacity="0.3"/>
<path d="M88.9361 35.0501L76.3545 -2.14186L91.1678 -10.6944C95.6452 -13.2794 99.6497 -14.3 103.181 -13.7563C106.745 -13.231 109.535 -11.2218 111.551 -7.72888C113.165 -4.9345 113.887 -2.07021 113.718 0.863989C113.581 3.77986 112.582 6.55858 110.72 9.20015C108.889 11.8234 106.259 14.125 102.83 16.105L92.0653 22.32L95.2343 13.949L100.177 28.5601L88.9361 35.0501ZM95.7185 15.4477L88.8226 12.6336L98.3965 7.1061C99.9525 6.20777 100.939 5.13005 101.357 3.87295C101.756 2.58409 101.552 1.24107 100.745 -0.156119C100.048 -1.36278 99.1724 -2.00015 98.1169 -2.06822C97.0749 -2.18637 95.9029 -1.86961 94.601 -1.11795L85.8845 3.91455L88.861 -4.7899L95.7185 15.4477ZM135.372 8.87547C133.657 9.86547 131.708 10.3767 129.525 10.4092C127.324 10.4099 125.17 9.83277 123.064 8.67786C120.971 7.47287 119.182 5.58433 117.697 3.01223C116.451 0.852941 115.67 -1.34253 115.355 -3.57419C115.041 -5.80585 115.133 -7.95519 115.634 -10.0222C116.147 -12.1393 117.019 -14.0397 118.248 -15.7234C119.491 -17.4571 121.05 -18.8649 122.923 -19.9465C124.955 -21.1199 126.956 -21.7246 128.925 -21.7606C130.894 -21.7967 132.765 -21.0136 134.536 -19.4115C136.322 -17.8595 137.934 -15.213 139.374 -11.4718C140.543 -8.4208 141.174 -5.56748 141.268 -2.91187C141.394 -0.274598 140.974 2.04219 140.01 4.03851C139.045 6.03482 137.499 7.64714 135.372 8.87547ZM134.526 -1.94041C135.478 -2.49041 136.166 -3.20524 136.59 -4.08489C136.995 -4.99629 137.132 -6.00655 136.999 -7.11567C136.899 -8.24312 136.5 -9.41018 135.804 -10.6168C135.107 -11.8235 134.189 -12.6062 133.051 -12.965C131.944 -13.3421 130.787 -13.1823 129.58 -12.4856C128.66 -11.954 127.981 -11.2233 127.544 -10.2935C127.12 -9.41389 126.958 -8.41034 127.059 -7.28289C127.191 -6.17377 127.606 -5.01588 128.302 -3.80921C128.999 -2.60255 129.901 -1.81067 131.008 -1.43357C132.146 -1.0748 133.319 -1.24375 134.526 -1.94041ZM141.67 4.60416L140.349 0.666937L136.612 -9.87684L132.548 -20.1054L131.2 -24.0902L141.965 -30.3052L151.816 -1.25334L141.67 4.60416ZM156.194 -3.78121L146.343 -32.8331L156.489 -38.6906L159.275 -30.4552L157.064 -31.9735C156.952 -34.6609 157.592 -36.9991 158.984 -38.9882C160.408 -40.9957 162.358 -42.7144 164.835 -44.1444L168.43 -33.5181C167.949 -33.325 167.508 -33.1343 167.109 -32.946C166.741 -32.7761 166.367 -32.5811 165.986 -32.3611C164.208 -31.3345 162.992 -30.1034 162.339 -28.6679C161.718 -27.2507 161.748 -25.5112 162.43 -23.4495L166.959 -9.99621L156.194 -3.78121ZM191.022 -23.2542C188.799 -21.9709 186.672 -21.2929 184.639 -21.2202C182.606 -21.1474 180.814 -21.7216 179.262 -22.9426C177.692 -24.1954 176.479 -26.0774 175.622 -28.5887L167.416 -52.8111L178.181 -59.0261L186.359 -34.8513C186.713 -33.8705 187.185 -33.2746 187.772 -33.0634C188.36 -32.8523 189.019 -32.9575 189.749 -33.3792C190.194 -33.6359 190.563 -33.9127 190.857 -34.2096C191.165 -34.5566 191.47 -34.9446 191.773 -35.3734L197.192 -28.8484C196.519 -27.7403 195.628 -26.7176 194.517 -25.7803C193.457 -24.8296 192.292 -23.9876 191.022 -23.2542ZM169.54 -33.8418L166.575 -42.6085L186.246 -53.966L189.212 -45.1993L169.54 -33.8418ZM209.262 -21.4641C207.833 -20.6391 206.3 -20.0297 204.665 -19.6358C202.998 -19.2236 201.543 -19.1034 200.3 -19.2753L200.651 -29.4484C201.429 -29.3473 202.225 -29.3622 203.038 -29.4932C203.852 -29.6241 204.624 -29.9004 205.354 -30.3221C206.211 -30.8171 206.791 -31.4268 207.092 -32.1513C207.412 -32.844 207.581 -33.7248 207.599 -34.7937L207.671 -38.5188L207.876 -40.0342L208.043 -68.4553L218.569 -74.5328L217.91 -38.7145C217.856 -35.5079 217.531 -32.8436 216.936 -30.7216C216.341 -28.5996 215.405 -26.8103 214.129 -25.3538C212.885 -23.9157 211.262 -22.6191 209.262 -21.4641ZM208.102 -32.1626L186.466 -55.9978L197.183 -62.1853L212.756 -44.1218L208.102 -32.1626Z" fill="white" fill-opacity="0.3"/>
<path d="M-137.905 229.05L-150.486 191.858L-135.673 183.306C-131.196 180.721 -127.191 179.7 -123.659 180.244C-120.096 180.769 -117.306 182.778 -115.289 186.271C-113.676 189.065 -112.954 191.93 -113.123 194.864C-113.26 197.78 -114.259 200.559 -116.121 203.2C-117.952 205.823 -120.581 208.125 -124.011 210.105L-134.776 216.32L-131.607 207.949L-126.664 222.56L-137.905 229.05ZM-131.122 209.448L-138.018 206.634L-128.444 201.106C-126.888 200.208 -125.902 199.13 -125.484 197.873C-125.085 196.584 -125.289 195.241 -126.096 193.844C-126.792 192.637 -127.668 192 -128.724 191.932C-129.766 191.814 -130.938 192.13 -132.24 192.882L-140.956 197.915L-137.98 189.21L-131.122 209.448ZM-91.4689 202.875C-93.1837 203.865 -95.1325 204.377 -97.3154 204.409C-99.5166 204.41 -101.67 203.833 -103.777 202.678C-105.87 201.473 -107.658 199.584 -109.143 197.012C-110.39 194.853 -111.171 192.657 -111.485 190.426C-111.8 188.194 -111.707 186.045 -111.207 183.978C-110.694 181.861 -109.822 179.96 -108.592 178.277C-107.349 176.543 -105.791 175.135 -103.918 174.053C-101.885 172.88 -99.8848 172.275 -97.9157 172.239C-95.9466 172.203 -94.0761 172.986 -92.3044 174.588C-90.5192 176.14 -88.9065 178.787 -87.4663 182.528C-86.2976 185.579 -85.6663 188.433 -85.5726 191.088C-85.4472 193.725 -85.8667 196.042 -86.8311 198.039C-87.7954 200.035 -89.3414 201.647 -91.4689 202.875ZM-92.3153 192.06C-91.3626 191.51 -90.6745 190.795 -90.2509 189.915C-89.8457 189.004 -89.7092 187.993 -89.8415 186.884C-89.942 185.757 -90.3406 184.59 -91.0373 183.383C-91.7339 182.176 -92.6515 181.394 -93.7901 181.035C-94.897 180.658 -96.0537 180.818 -97.2604 181.514C-98.1813 182.046 -98.8602 182.777 -99.2972 183.706C-99.7208 184.586 -99.8824 185.59 -99.7818 186.717C-99.6495 187.826 -99.2351 188.984 -98.5384 190.191C-97.8417 191.397 -96.94 192.189 -95.8331 192.566C-94.6945 192.925 -93.5219 192.756 -92.3153 192.06ZM-85.1708 198.604L-86.4913 194.667L-90.229 184.123L-94.2927 173.895L-95.6407 169.91L-84.876 163.695L-75.0253 192.747L-85.1708 198.604ZM-70.6469 190.219L-80.4976 161.167L-70.3521 155.309L-67.5662 163.545L-69.7764 162.027C-69.8885 159.339 -69.2485 157.001 -67.8566 155.012C-66.4329 153.004 -64.4826 151.286 -62.0058 149.856L-58.4111 160.482C-58.8923 160.675 -59.3326 160.866 -59.732 161.054C-60.0996 161.224 -60.474 161.419 -60.855 161.639C-62.6332 162.666 -63.8489 163.897 -64.502 165.332C-65.1233 166.749 -65.0928 168.489 -64.4105 170.551L-59.8822 184.004L-70.6469 190.219ZM-35.8186 170.746C-38.0414 172.029 -40.1691 172.707 -42.2018 172.78C-44.2344 172.853 -46.0266 172.278 -47.5783 171.057C-49.1484 169.805 -50.362 167.923 -51.2191 165.411L-59.4247 141.189L-48.66 134.974L-40.4819 159.149C-40.1274 160.129 -39.6563 160.725 -39.0686 160.937C-38.481 161.148 -37.822 161.042 -37.0917 160.621C-36.6471 160.364 -36.2777 160.087 -35.9834 159.79C-35.6757 159.443 -35.3704 159.055 -35.0676 158.627L-29.6492 165.152C-30.3219 166.26 -31.2133 167.282 -32.3234 168.22C-33.3834 169.17 -34.5485 170.012 -35.8186 170.746ZM-57.3004 160.158L-60.2661 151.392L-40.5943 140.034L-37.6287 148.801L-57.3004 160.158ZM-17.5792 172.536C-19.0082 173.361 -20.5404 173.97 -22.1759 174.364C-23.8432 174.776 -25.298 174.897 -26.5404 174.725L-26.19 164.552C-25.4118 164.653 -24.616 164.638 -23.8025 164.507C-22.989 164.376 -22.2171 164.1 -21.4867 163.678C-20.6294 163.183 -20.0499 162.573 -19.7484 161.849C-19.4286 161.156 -19.2597 160.275 -19.2417 159.206L-19.1696 155.481L-18.9649 153.966L-18.7981 125.545L-8.27157 119.467L-8.93072 155.286C-8.98466 158.492 -9.30935 161.156 -9.90478 163.278C-10.5002 165.4 -11.436 167.19 -12.712 168.646C-13.9563 170.084 -15.5787 171.381 -17.5792 172.536ZM-18.7388 161.837L-40.3751 138.002L-29.6581 131.815L-14.0849 149.878L-18.7388 161.837Z" fill="white" fill-opacity="0.3"/>
<path d="M14.5162 141.05L1.93456 103.858L16.7479 95.3056C21.2253 92.7206 25.2298 91.7 28.7614 92.2437C32.3248 92.769 35.1149 94.7782 37.1316 98.2711C38.7449 101.065 39.4671 103.93 39.2983 106.864C39.1612 109.78 38.1616 112.559 36.2996 115.2C34.4694 117.823 31.8395 120.125 28.41 122.105L17.6453 128.32L20.8144 119.949L25.7572 134.56L14.5162 141.05ZM21.2986 121.448L14.4027 118.634L23.9766 113.106C25.5326 112.208 26.5192 111.13 26.9366 109.873C27.3356 108.584 27.1318 107.241 26.3251 105.844C25.6285 104.637 24.7524 104 23.697 103.932C22.655 103.814 21.483 104.13 20.1811 104.882L11.4645 109.915L14.4411 101.21L21.2986 121.448ZM60.952 114.875C59.2372 115.865 57.2884 116.377 55.1055 116.409C52.9043 116.41 50.7506 115.833 48.6442 114.678C46.5514 113.473 44.7624 111.584 43.2774 109.012C42.0307 106.853 41.2501 104.657 40.9354 102.426C40.6208 100.194 40.7135 98.0448 41.2137 95.9778C41.7273 93.8607 42.5989 91.9603 43.8284 90.2766C45.0714 88.5429 46.6296 87.1351 48.5031 86.0535C50.5354 84.8801 52.5361 84.2754 54.5052 84.2394C56.4743 84.2033 58.3448 84.9864 60.1165 86.5885C61.9017 88.1405 63.5144 90.787 64.9546 94.5282C66.1233 97.5792 66.7546 100.433 66.8483 103.088C66.9737 105.725 66.5542 108.042 65.5898 110.039C64.6255 112.035 63.0795 113.647 60.952 114.875ZM60.1056 104.06C61.0583 103.51 61.7464 102.795 62.17 101.915C62.5752 101.004 62.7117 99.9935 62.5794 98.8843C62.4789 97.7569 62.0803 96.5898 61.3836 95.3832C60.687 94.1765 59.7694 93.3938 58.6308 93.035C57.5239 92.6579 56.3672 92.8177 55.1605 93.5144C54.2396 94.046 53.5607 94.7767 53.1237 95.7065C52.7001 96.5861 52.5385 97.5897 52.6391 98.7171C52.7714 99.8262 53.1858 100.984 53.8825 102.191C54.5792 103.397 55.4809 104.189 56.5878 104.566C57.7264 104.925 58.899 104.756 60.1056 104.06ZM67.2501 110.604L65.9296 106.667L62.1919 96.1232L58.1282 85.8946L56.7802 81.9098L67.5449 75.6948L77.3956 104.747L67.2501 110.604ZM81.774 102.219L71.9233 73.1669L82.0688 67.3094L84.8547 75.5448L82.6445 74.0265C82.5324 71.3391 83.1724 69.0009 84.5643 67.0118C85.988 65.0043 87.9383 63.2856 90.4151 61.8556L94.0098 72.4819C93.5286 72.675 93.0883 72.8657 92.6889 73.054C92.3213 73.2239 91.9469 73.4189 91.5659 73.6389C89.7876 74.6655 88.572 75.8966 87.9189 77.3321C87.2976 78.7493 87.3281 80.4888 88.0104 82.5505L92.5387 96.0038L81.774 102.219ZM116.602 82.7458C114.379 84.0291 112.252 84.7071 110.219 84.7798C108.186 84.8526 106.394 84.2784 104.843 83.0574C103.272 81.8046 102.059 79.9226 101.202 77.4113L92.9962 53.1889L103.761 46.9739L111.939 71.1487C112.294 72.1295 112.765 72.7254 113.352 72.9366C113.94 73.1477 114.599 73.0425 115.329 72.6208C115.774 72.3641 116.143 72.0873 116.438 71.7904C116.745 71.4434 117.05 71.0554 117.353 70.6266L122.772 77.1516C122.099 78.2597 121.208 79.2824 120.098 80.2197C119.038 81.1704 117.872 82.0124 116.602 82.7458ZM95.1205 72.1582L92.1548 63.3915L111.827 52.034L114.792 60.8007L95.1205 72.1582ZM134.842 84.5359C133.413 85.3609 131.881 85.9703 130.245 86.3642C128.578 86.7764 127.123 86.8966 125.881 86.7247L126.231 76.5516C127.009 76.6527 127.805 76.6378 128.618 76.5068C129.432 76.3759 130.204 76.0996 130.934 75.6779C131.792 75.1829 132.371 74.5732 132.672 73.8487C132.992 73.156 133.161 72.2752 133.179 71.2063L133.251 67.4812L133.456 65.9658L133.623 37.5447L144.149 31.4672L143.49 67.2855C143.436 70.4921 143.112 73.1564 142.516 75.2784C141.921 77.4004 140.985 79.1897 139.709 80.6462C138.465 82.0843 136.842 83.3809 134.842 84.5359ZM133.682 73.8374L112.046 50.0022L122.763 43.8147L138.336 61.8782L133.682 73.8374Z" fill="white"/>
<path d="M166.936 53.0501L154.354 15.8581L169.168 7.30564C173.645 4.72064 177.65 3.69997 181.181 4.24365C184.745 4.769 187.535 6.77815 189.551 10.2711C191.165 13.0655 191.887 15.9298 191.718 18.864C191.581 21.7799 190.582 24.5586 188.72 27.2002C186.889 29.8234 184.259 32.125 180.83 34.105L170.065 40.32L173.234 31.949L178.177 46.5601L166.936 53.0501ZM173.719 33.4477L166.823 30.6336L176.397 25.1061C177.952 24.2078 178.939 23.1301 179.357 21.8729C179.756 20.5841 179.552 19.2411 178.745 17.8439C178.048 16.6372 177.172 15.9999 176.117 15.9318C175.075 15.8136 173.903 16.1304 172.601 16.8821L163.884 21.9146L166.861 13.2101L173.719 33.4477ZM213.372 26.8755C211.657 27.8655 209.708 28.3767 207.525 28.4092C205.324 28.4099 203.17 27.8328 201.064 26.6779C198.971 25.4729 197.182 23.5843 195.697 21.0122C194.451 18.8529 193.67 16.6575 193.355 14.4258C193.041 12.1941 193.133 10.0448 193.634 7.9778C194.147 5.8607 195.019 3.96031 196.248 2.27662C197.491 0.542855 199.05 -0.864862 200.923 -1.94653C202.955 -3.11986 204.956 -3.72456 206.925 -3.76061C208.894 -3.79667 210.765 -3.01365 212.536 -1.41155C214.322 0.14046 215.934 2.78703 217.374 6.52816C218.543 9.5792 219.174 12.4325 219.268 15.0881C219.394 17.7254 218.974 20.0422 218.01 22.0385C217.045 24.0348 215.499 25.6471 213.372 26.8755ZM212.526 16.0596C213.478 15.5096 214.166 14.7948 214.59 13.9151C214.995 13.0037 215.132 11.9935 214.999 10.8843C214.899 9.75688 214.5 8.58982 213.804 7.38316C213.107 6.1765 212.189 5.39378 211.051 5.03501C209.944 4.65791 208.787 4.81769 207.58 5.51436C206.66 6.04603 205.981 6.77673 205.544 7.70646C205.12 8.58611 204.958 9.58966 205.059 10.7171C205.191 11.8262 205.606 12.9841 206.302 14.1908C206.999 15.3974 207.901 16.1893 209.008 16.5664C210.146 16.9252 211.319 16.7563 212.526 16.0596ZM219.67 22.6042L218.349 18.6669L214.612 8.12316L210.548 -2.10536L209.2 -6.09022L219.965 -12.3052L229.816 16.7467L219.67 22.6042ZM234.194 14.2188L224.343 -14.8331L234.489 -20.6906L237.275 -12.4552L235.064 -13.9735C234.952 -16.6609 235.592 -18.9991 236.984 -20.9882C238.408 -22.9957 240.358 -24.7144 242.835 -26.1444L246.43 -15.5181C245.949 -15.325 245.508 -15.1343 245.109 -14.946C244.741 -14.7761 244.367 -14.5811 243.986 -14.3611C242.208 -13.3345 240.992 -12.1034 240.339 -10.6679C239.718 -9.25067 239.748 -7.5112 240.43 -5.44945L244.959 8.00379L234.194 14.2188ZM269.022 -5.25423C266.799 -3.9709 264.672 -3.29287 262.639 -3.22015C260.606 -3.14743 258.814 -3.72159 257.262 -4.94264C255.692 -6.19544 254.479 -8.07745 253.622 -10.5887L245.416 -34.8111L256.181 -41.0261L264.359 -16.8513C264.713 -15.8705 265.185 -15.2746 265.772 -15.0634C266.36 -14.8523 267.019 -14.9575 267.749 -15.3792C268.194 -15.6359 268.563 -15.9127 268.857 -16.2096C269.165 -16.5566 269.47 -16.9446 269.773 -17.3734L275.192 -10.8484C274.519 -9.74028 273.628 -8.71757 272.517 -7.78029C271.457 -6.82959 270.292 -5.98757 269.022 -5.25423ZM247.54 -15.8418L244.575 -24.6085L264.246 -35.966L267.212 -27.1993L247.54 -15.8418ZM287.262 -3.46411C285.833 -2.63911 284.3 -2.02968 282.665 -1.63582C280.998 -1.22363 279.543 -1.10345 278.3 -1.27529L278.651 -11.4484C279.429 -11.3473 280.225 -11.3622 281.038 -11.4932C281.852 -11.6241 282.624 -11.9004 283.354 -12.3221C284.211 -12.8171 284.791 -13.4268 285.092 -14.1513C285.412 -14.844 285.581 -15.7248 285.599 -16.7937L285.671 -20.5188L285.876 -22.0342L286.043 -50.4553L296.569 -56.5328L295.91 -20.7145C295.856 -17.5079 295.531 -14.8436 294.936 -12.7216C294.341 -10.5996 293.405 -8.81034 292.129 -7.35385C290.885 -5.91569 289.262 -4.61911 287.262 -3.46411ZM286.102 -14.1626L264.466 -37.9978L275.183 -44.1853L290.756 -26.1218L286.102 -14.1626Z" fill="white" fill-opacity="0.3"/>
<path d="M-137.574 286.823C-141.003 288.803 -144.361 289.916 -147.649 290.162C-150.954 290.377 -153.963 289.786 -156.675 288.388C-159.374 286.94 -161.576 284.74 -163.281 281.786C-164.968 278.865 -166.009 275.889 -166.404 272.857C-166.768 269.807 -166.511 266.843 -165.632 263.964C-164.753 261.086 -163.287 258.419 -161.233 255.963C-159.166 253.457 -156.545 251.287 -153.369 249.454C-149.876 247.437 -146.555 246.26 -143.404 245.924C-140.241 245.536 -137.258 245.973 -134.455 247.234L-138.902 258.122C-140.789 257.348 -142.482 257.055 -143.982 257.244C-145.5 257.401 -147.053 257.937 -148.641 258.854C-150.101 259.697 -151.273 260.712 -152.154 261.899C-153.054 263.053 -153.667 264.339 -153.993 265.754C-154.305 267.12 -154.326 268.551 -154.055 270.046C-153.785 271.541 -153.219 273.035 -152.357 274.527C-151.605 275.829 -150.66 276.807 -149.52 277.461C-148.348 278.098 -147.067 278.374 -145.675 278.29C-144.252 278.188 -142.779 277.697 -141.254 276.817C-139.984 276.084 -138.833 275.144 -137.801 273.998C-136.788 272.82 -135.917 271.322 -135.188 269.505L-126.329 275.059C-127.342 277.338 -128.806 279.495 -130.721 281.532C-132.654 283.538 -134.938 285.301 -137.574 286.823ZM-136.75 278.789L-141.54 264.662L-131.776 259.025L-126.329 275.059L-136.75 278.789ZM-108.861 269.864C-110.575 270.854 -112.524 271.365 -114.707 271.398C-116.908 271.398 -119.062 270.821 -121.168 269.666C-123.261 268.461 -125.05 266.573 -126.535 264.001C-127.782 261.842 -128.563 259.646 -128.877 257.414C-129.192 255.183 -129.099 253.033 -128.599 250.966C-128.085 248.849 -127.214 246.949 -125.984 245.265C-124.741 243.531 -123.183 242.124 -121.31 241.042C-119.277 239.869 -117.277 239.264 -115.307 239.228C-113.338 239.192 -111.468 239.975 -109.696 241.577C-107.911 243.129 -106.298 245.776 -104.858 249.517C-103.689 252.568 -103.058 255.421 -102.964 258.077C-102.839 260.714 -103.258 263.031 -104.223 265.027C-105.187 267.023 -106.733 268.636 -108.861 269.864ZM-109.707 259.048C-108.754 258.498 -108.066 257.783 -107.643 256.904C-107.237 255.992 -107.101 254.982 -107.233 253.873C-107.334 252.745 -107.732 251.578 -108.429 250.372C-109.126 249.165 -110.043 248.382 -111.182 248.024C-112.289 247.646 -113.445 247.806 -114.652 248.503C-115.573 249.035 -116.252 249.765 -116.689 250.695C-117.113 251.575 -117.274 252.578 -117.174 253.706C-117.041 254.815 -116.627 255.973 -115.93 257.179C-115.233 258.386 -114.332 259.178 -113.225 259.555C-112.086 259.914 -110.914 259.745 -109.707 259.048ZM-102.563 265.593L-103.883 261.656L-107.621 251.112L-111.684 240.883L-113.032 236.898L-102.268 230.683L-92.4171 259.735L-102.563 265.593ZM-64.2984 208.127C-62.2979 206.972 -60.2856 206.424 -58.2615 206.483C-56.2557 206.51 -54.3969 207.237 -52.685 208.662C-50.9915 210.055 -49.6355 212.257 -48.617 215.268L-43.1699 231.302L-53.9346 237.517L-58.8223 223.001C-59.4031 221.262 -60.1175 220.172 -60.9654 219.73C-61.8316 219.256 -62.6934 219.267 -63.5508 219.762C-64.5351 220.33 -65.1908 221.174 -65.5179 222.295C-65.8632 223.383 -65.7247 224.87 -65.1023 226.754L-60.2219 241.147L-70.9866 247.362L-75.8744 232.846C-76.4552 231.107 -77.1695 230.017 -78.0174 229.575C-78.8836 229.101 -79.7454 229.112 -80.6028 229.607C-81.5872 230.175 -82.2496 231.044 -82.59 232.215C-82.917 233.335 -82.751 234.869 -82.092 236.817L-77.274 250.992L-88.0387 257.207L-97.8893 228.155L-87.7438 222.298L-85.6769 228.408L-87.3587 229.125C-87.3205 226.478 -86.7098 224.199 -85.5267 222.288C-84.362 220.345 -82.8905 218.861 -81.1123 217.834C-79.6834 217.009 -78.1847 216.525 -76.6163 216.382C-75.0344 216.188 -73.4848 216.415 -71.9675 217.064C-70.4684 217.68 -69.1354 218.816 -67.9682 220.47L-71.301 221.188C-71.4179 218.419 -70.8788 215.906 -69.6837 213.649C-68.5068 211.361 -66.7117 209.52 -64.2984 208.127ZM-22.8111 220.183C-25.669 221.833 -28.4618 222.789 -31.1894 223.052C-33.8853 223.296 -36.359 222.861 -38.6107 221.748C-40.8624 220.634 -42.694 218.855 -44.1057 216.41C-45.7557 213.552 -46.5647 210.611 -46.5327 207.586C-46.5007 204.562 -45.6538 201.702 -43.9922 199.007C-42.2988 196.293 -39.8326 194.001 -36.5937 192.131C-33.7993 190.518 -31.1335 189.635 -28.5964 189.483C-26.0593 189.331 -23.7719 189.809 -21.734 190.919C-19.6961 192.029 -18.0263 193.711 -16.7246 195.965C-16.2663 196.759 -15.8806 197.574 -15.5677 198.409C-15.2229 199.227 -14.9283 200.03 -14.6837 200.82L-34.927 212.508L-36.9243 206.739L-22.6349 198.489L-26.3147 202.455C-26.6474 201.292 -27.1582 200.444 -27.8474 199.91C-28.5231 199.327 -29.2884 199.028 -30.1435 199.013C-31.017 198.967 -31.9141 199.21 -32.835 199.742C-34.1369 200.493 -34.9672 201.438 -35.326 202.577C-35.6848 203.716 -35.718 204.941 -35.4256 206.254C-35.1015 207.549 -34.5911 208.8 -33.8944 210.007C-32.9594 211.626 -31.8616 212.538 -30.6009 212.741C-29.3268 212.895 -27.8482 212.486 -26.1652 211.514C-25.1809 210.946 -24.279 210.234 -23.4596 209.38C-22.6585 208.494 -22.0194 207.511 -21.5421 206.431L-13.2972 210.372C-14.3788 212.605 -15.7506 214.519 -17.4126 216.114C-19.0429 217.69 -20.8424 219.047 -22.8111 220.183ZM3.06055 205.246C0.74249 206.585 -1.59276 207.637 -3.94521 208.402C-6.28424 209.117 -8.21783 209.472 -9.74598 209.465L-10.2657 199.984C-8.50548 200.027 -6.69645 199.787 -4.83865 199.264C-2.96742 198.692 -1.30147 197.984 0.159231 197.141C1.36589 196.444 2.12734 195.857 2.44356 195.378C2.77321 194.849 2.8372 194.409 2.63553 194.06C2.41553 193.679 1.94216 193.593 1.21541 193.8C0.470322 193.977 -0.446956 194.294 -1.53643 194.754C-2.59414 195.195 -3.75203 195.61 -5.0101 195.998C-6.26816 196.385 -7.54277 196.634 -8.8339 196.744C-10.1116 196.805 -11.3247 196.574 -12.4731 196.051C-13.6215 195.529 -14.6174 194.537 -15.4607 193.076C-16.7624 190.822 -17.1748 188.604 -16.6978 186.424C-16.2075 184.193 -15.0526 182.087 -13.2331 180.105C-11.432 178.091 -9.18187 176.305 -6.48276 174.747C-4.57751 173.647 -2.6508 172.767 -0.702649 172.108C1.25892 171.399 3.10576 170.968 4.83786 170.815L5.35761 180.295C3.53384 180.289 1.86591 180.554 0.353809 181.088C-1.12654 181.604 -2.42241 182.183 -3.53381 182.825C-4.77223 183.54 -5.54709 184.177 -5.8584 184.738C-6.18805 185.267 -6.26121 185.691 -6.07788 186.008C-5.85788 186.389 -5.37533 186.492 -4.63025 186.315C-3.88516 186.139 -2.9746 185.846 -1.89855 185.437C-0.840831 184.996 0.31706 184.581 1.57513 184.193C2.84661 183.756 4.12121 183.507 5.39893 183.446C6.65831 183.354 7.86221 183.57 9.01063 184.092C10.1591 184.615 11.1549 185.606 11.9983 187.067C13.2449 189.226 13.6231 191.421 13.1327 193.652C12.6741 195.864 11.5443 197.977 9.74316 199.991C7.95544 201.954 5.72791 203.706 3.06055 205.246Z" fill="white" fill-opacity="0.3"/>
<path d="M52.9517 176.823C49.5222 178.803 46.1639 179.916 42.8768 180.162C39.5714 180.377 36.5625 179.786 33.8503 178.388C31.1514 176.94 28.9495 174.74 27.2445 171.786C25.5578 168.865 24.5167 165.889 24.1212 162.857C23.7574 159.807 24.0148 156.843 24.8934 153.964C25.772 151.086 27.2382 148.419 29.2921 145.963C31.3593 143.457 33.9807 141.287 37.1561 139.454C40.6491 137.437 43.9707 136.26 47.1209 135.924C50.2846 135.536 53.2678 135.973 56.0704 137.234L51.6232 148.122C49.7369 147.348 48.0437 147.055 46.5437 147.244C45.0254 147.401 43.4724 147.937 41.8847 148.854C40.424 149.697 39.2528 150.712 38.3713 151.899C37.4714 153.053 36.8586 154.339 36.5329 155.754C36.2206 157.12 36.1997 158.551 36.4701 160.046C36.7405 161.541 37.3066 163.035 38.1683 164.527C38.9199 165.829 39.8657 166.807 41.0056 167.461C42.1773 168.098 43.4588 168.374 44.8501 168.29C46.2732 168.188 47.7468 167.697 49.271 166.817C50.5412 166.084 51.6922 165.144 52.724 163.998C53.7375 162.82 54.6086 161.322 55.3373 159.505L64.1965 165.059C63.1833 167.338 61.7194 169.495 59.8047 171.532C57.8716 173.538 55.5873 175.301 52.9517 176.823ZM53.7755 168.789L48.9849 154.662L58.7494 149.025L64.1965 165.059L53.7755 168.789ZM81.6647 159.864C79.95 160.854 78.0012 161.365 75.8183 161.398C73.6171 161.398 71.4633 160.821 69.357 159.666C67.2641 158.461 65.4751 156.573 63.9901 154.001C62.7435 151.842 61.9628 149.646 61.6482 147.414C61.3335 145.183 61.4263 143.033 61.9264 140.966C62.44 138.849 63.3116 136.949 64.5412 135.265C65.7841 133.531 67.3424 132.124 69.2159 131.042C71.2482 129.869 73.2489 129.264 75.218 129.228C77.1871 129.192 79.0575 129.975 80.8293 131.577C82.6144 133.129 84.2271 135.776 85.6673 139.517C86.8361 142.568 87.4673 145.421 87.561 148.077C87.6864 150.714 87.267 153.031 86.3026 155.027C85.3382 157.023 83.7922 158.636 81.6647 159.864ZM80.8184 149.048C81.771 148.498 82.4591 147.783 82.8827 146.904C83.288 145.992 83.4245 144.982 83.2922 143.873C83.1917 142.745 82.7931 141.578 82.0964 140.372C81.3997 139.165 80.4821 138.382 79.3435 138.024C78.2367 137.646 77.0799 137.806 75.8732 138.503C74.9524 139.035 74.2734 139.765 73.8364 140.695C73.4128 141.575 73.2513 142.578 73.3518 143.706C73.4841 144.815 73.8986 145.973 74.5952 147.179C75.2919 148.386 76.1937 149.178 77.3005 149.555C78.4391 149.914 79.6117 149.745 80.8184 149.048ZM87.9628 155.593L86.6423 151.656L82.9047 141.112L78.841 130.883L77.493 126.898L88.2577 120.683L98.1083 149.735L87.9628 155.593ZM126.227 98.1267C128.227 96.9717 130.24 96.4238 132.264 96.483C134.27 96.5104 136.129 97.2367 137.84 98.6617C139.534 100.055 140.89 102.257 141.908 105.268L147.356 121.302L136.591 127.517L131.703 113.001C131.122 111.262 130.408 110.172 129.56 109.73C128.694 109.256 127.832 109.267 126.975 109.762C125.99 110.33 125.335 111.174 125.008 112.295C124.662 113.383 124.801 114.87 125.423 116.754L130.303 131.147L119.539 137.362L114.651 122.846C114.07 121.107 113.356 120.017 112.508 119.575C111.642 119.101 110.78 119.112 109.923 119.607C108.938 120.175 108.276 121.044 107.935 122.215C107.608 123.335 107.774 124.869 108.433 126.817L113.251 140.992L102.487 147.207L92.6361 118.155L102.782 112.298L104.849 118.408L103.167 119.125C103.205 116.478 103.816 114.199 104.999 112.288C106.163 110.345 107.635 108.861 109.413 107.834C110.842 107.009 112.341 106.525 113.909 106.382C115.491 106.188 117.041 106.415 118.558 107.064C120.057 107.68 121.39 108.816 122.557 110.47L119.224 111.188C119.107 108.419 119.647 105.906 120.842 103.649C122.019 101.361 123.814 99.52 126.227 98.1267ZM167.714 110.183C164.856 111.833 162.064 112.789 159.336 113.052C156.64 113.296 154.166 112.861 151.915 111.748C149.663 110.634 147.831 108.855 146.42 106.41C144.77 103.552 143.961 100.611 143.993 97.5864C144.025 94.5619 144.872 91.702 146.533 89.0067C148.227 86.2931 150.693 84.0013 153.932 82.1313C156.726 80.518 159.392 79.6352 161.929 79.4829C164.466 79.3306 166.754 79.8093 168.791 80.9191C170.829 82.0288 172.499 83.7109 173.801 85.9655C174.259 86.7593 174.645 87.574 174.958 88.4094C175.302 89.2265 175.597 90.0302 175.842 90.8205L155.598 102.508L153.601 96.7387L167.891 88.4887L164.211 92.455C163.878 91.2922 163.367 90.444 162.678 89.9104C162.002 89.3267 161.237 89.0277 160.382 89.0133C159.508 88.9671 158.611 89.2099 157.69 89.7416C156.388 90.4932 155.558 91.4384 155.199 92.577C154.841 93.7155 154.807 94.9414 155.1 96.2544C155.424 97.5492 155.934 98.7999 156.631 100.007C157.566 101.626 158.664 102.538 159.925 102.741C161.199 102.895 162.677 102.486 164.36 101.514C165.345 100.946 166.246 100.234 167.066 99.3802C167.867 98.4943 168.506 97.5114 168.983 96.4314L177.228 100.372C176.147 102.605 174.775 104.519 173.113 106.114C171.483 107.69 169.683 109.047 167.714 110.183ZM193.586 95.2463C191.268 96.5846 188.933 97.6365 186.58 98.402C184.241 99.1173 182.308 99.4716 180.779 99.4647L180.26 89.9845C182.02 90.0267 183.829 89.7867 185.687 89.2645C187.558 88.6922 189.224 87.9844 190.685 87.1411C191.891 86.4444 192.653 85.8566 192.969 85.3776C193.299 84.8486 193.363 84.4094 193.161 84.0601C192.941 83.6791 192.468 83.5925 191.741 83.8004C190.996 83.9765 190.078 84.2944 188.989 84.7541C187.931 85.1954 186.773 85.6099 185.515 85.9975C184.257 86.3852 182.983 86.6341 181.691 86.7445C180.414 86.8048 179.201 86.5737 178.052 86.0512C176.904 85.5288 175.908 84.5372 175.065 83.0765C173.763 80.8219 173.351 78.6044 173.828 76.4237C174.318 74.1931 175.473 72.0867 177.292 70.1048C179.093 68.0911 181.344 66.3051 184.043 64.7468C185.948 63.6468 187.875 62.7673 189.823 62.1082C191.784 61.3991 193.631 60.9679 195.363 60.8147L195.883 70.2949C194.059 70.2894 192.391 70.5538 190.879 71.0881C189.399 71.604 188.103 72.1829 186.992 72.8245C185.753 73.5395 184.978 74.1774 184.667 74.7382C184.337 75.2672 184.264 75.6905 184.448 76.0081C184.668 76.3891 185.15 76.4916 185.895 76.3154C186.64 76.1393 187.551 75.8464 188.627 75.4369C189.685 74.9956 190.842 74.5811 192.101 74.1935C193.372 73.7557 194.647 73.5067 195.924 73.4465C197.184 73.3545 198.388 73.5697 199.536 74.0921C200.684 74.6146 201.68 75.6062 202.524 77.0669C203.77 79.2261 204.148 81.4211 203.658 83.6518C203.2 85.8642 202.07 87.9772 200.269 89.9909C198.481 91.9545 196.253 93.7063 193.586 95.2463Z" fill="white"/>
<path d="M-20.5737 276.823C-24.0032 278.803 -27.3615 279.916 -30.6486 280.162C-33.954 280.377 -36.9628 279.786 -39.6751 278.388C-42.374 276.94 -44.5759 274.74 -46.2809 271.786C-47.9676 268.865 -49.0087 265.889 -49.4042 262.857C-49.768 259.807 -49.5106 256.843 -48.632 253.964C-47.7534 251.086 -46.2872 248.419 -44.2333 245.963C-42.1661 243.457 -39.5447 241.287 -36.3693 239.454C-32.8763 237.437 -29.5547 236.26 -26.4044 235.924C-23.2408 235.536 -20.2576 235.973 -17.455 237.234L-21.9022 248.122C-23.7885 247.348 -25.4817 247.055 -26.9817 247.244C-28.5 247.401 -30.053 247.937 -31.6407 248.854C-33.1014 249.697 -34.2726 250.712 -35.1541 251.899C-36.054 253.053 -36.6668 254.339 -36.9925 255.754C-37.3048 257.12 -37.3257 258.551 -37.0553 260.046C-36.7849 261.541 -36.2188 263.035 -35.3571 264.527C-34.6055 265.829 -33.6597 266.807 -32.5198 267.461C-31.3481 268.098 -30.0666 268.374 -28.6753 268.29C-27.2522 268.188 -25.7786 267.697 -24.2544 266.817C-22.9842 266.084 -21.8332 265.144 -20.8014 263.998C-19.7879 262.82 -18.9168 261.322 -18.1881 259.505L-9.32892 265.059C-10.3421 267.338 -11.806 269.495 -13.7207 271.532C-15.6538 273.538 -17.9381 275.301 -20.5737 276.823ZM-19.7499 268.789L-24.5405 254.662L-14.776 249.025L-9.32892 265.059L-19.7499 268.789ZM8.13932 259.864C6.42459 260.854 4.47578 261.365 2.29289 261.398C0.0916719 261.398 -2.0621 260.821 -4.16841 259.666C-6.2613 258.461 -8.05024 256.573 -9.53524 254.001C-10.7819 251.842 -11.5626 249.646 -11.8772 247.414C-12.1919 245.183 -12.0991 243.033 -11.5989 240.966C-11.0854 238.849 -10.2138 236.949 -8.98422 235.265C-7.74125 233.531 -6.18301 232.124 -4.30951 231.042C-2.27723 229.869 -0.276538 229.264 1.69258 229.228C3.6617 229.192 5.53213 229.975 7.30388 231.577C9.08906 233.129 10.7017 235.776 12.1419 239.517C13.3107 242.568 13.9419 245.421 14.0356 248.077C14.161 250.714 13.7416 253.031 12.7772 255.027C11.8128 257.023 10.2669 258.636 8.13932 259.864ZM7.29299 249.048C8.24562 248.498 8.93373 247.783 9.35732 246.904C9.76258 245.992 9.89907 244.982 9.76679 243.873C9.66626 242.745 9.26767 241.578 8.571 240.372C7.87433 239.165 6.9567 238.382 5.81811 238.024C4.71127 237.646 3.55452 237.806 2.34786 238.503C1.42698 239.035 0.748037 239.765 0.311023 240.695C-0.112571 241.575 -0.274104 242.578 -0.173577 243.706C-0.0412943 244.815 0.37318 245.973 1.06985 247.179C1.76651 248.386 2.66827 249.178 3.77511 249.555C4.9137 249.914 6.08633 249.745 7.29299 249.048ZM14.4375 255.593L13.1169 251.656L9.37929 241.112L5.3156 230.883L3.96757 226.898L14.7323 220.683L24.5829 249.735L14.4375 255.593ZM52.7016 198.127C54.7021 196.972 56.7144 196.424 58.7385 196.483C60.7443 196.51 62.6031 197.237 64.315 198.662C66.0085 200.055 67.3645 202.257 68.383 205.268L73.8301 221.302L63.0654 227.517L58.1777 213.001C57.5969 211.262 56.8825 210.172 56.0346 209.73C55.1684 209.256 54.3066 209.267 53.4492 209.762C52.4649 210.33 51.8092 211.174 51.4821 212.295C51.1368 213.383 51.2753 214.87 51.8977 216.754L56.7781 231.147L46.0134 237.362L41.1256 222.846C40.5448 221.107 39.8305 220.017 38.9826 219.575C38.1164 219.101 37.2546 219.112 36.3972 219.607C35.4128 220.175 34.7504 221.044 34.41 222.215C34.083 223.335 34.249 224.869 34.908 226.817L39.726 240.992L28.9613 247.207L19.1107 218.155L29.2562 212.298L31.3231 218.408L29.6413 219.125C29.6795 216.478 30.2902 214.199 31.4733 212.288C32.638 210.345 34.1095 208.861 35.8877 207.834C37.3166 207.009 38.8153 206.525 40.3837 206.382C41.9656 206.188 43.5152 206.415 45.0325 207.064C46.5316 207.68 47.8646 208.816 49.0318 210.47L45.699 211.188C45.5821 208.419 46.1212 205.906 47.3163 203.649C48.4932 201.361 50.2883 199.52 52.7016 198.127ZM94.1889 210.183C91.331 211.833 88.5382 212.789 85.8106 213.052C83.1147 213.296 80.641 212.861 78.3893 211.748C76.1376 210.634 74.306 208.855 72.8943 206.41C71.2443 203.552 70.4353 200.611 70.4673 197.586C70.4993 194.562 71.3462 191.702 73.0078 189.007C74.7012 186.293 77.1674 184.001 80.4063 182.131C83.2007 180.518 85.8665 179.635 88.4036 179.483C90.9407 179.331 93.2281 179.809 95.266 180.919C97.3039 182.029 98.9737 183.711 100.275 185.965C100.734 186.759 101.119 187.574 101.432 188.409C101.777 189.227 102.072 190.03 102.316 190.82L82.073 202.508L80.0757 196.739L94.3651 188.489L90.6853 192.455C90.3526 191.292 89.8418 190.444 89.1526 189.91C88.4769 189.327 87.7116 189.028 86.8565 189.013C85.983 188.967 85.0859 189.21 84.165 189.742C82.8631 190.493 82.0328 191.438 81.674 192.577C81.3152 193.716 81.282 194.941 81.5744 196.254C81.8985 197.549 82.4089 198.8 83.1056 200.007C84.0406 201.626 85.1384 202.538 86.3991 202.741C87.6732 202.895 89.1518 202.486 90.8348 201.514C91.8191 200.946 92.721 200.234 93.5404 199.38C94.3415 198.494 94.9806 197.511 95.4579 196.431L103.703 200.372C102.621 202.605 101.249 204.519 99.5874 206.114C97.9571 207.69 96.1576 209.047 94.1889 210.183ZM120.061 195.246C117.742 196.585 115.407 197.637 113.055 198.402C110.716 199.117 108.782 199.472 107.254 199.465L106.734 189.984C108.495 190.027 110.304 189.787 112.161 189.264C114.033 188.692 115.699 187.984 117.159 187.141C118.366 186.444 119.127 185.857 119.444 185.378C119.773 184.849 119.837 184.409 119.636 184.06C119.416 183.679 118.942 183.593 118.215 183.8C117.47 183.977 116.553 184.294 115.464 184.754C114.406 185.195 113.248 185.61 111.99 185.998C110.732 186.385 109.457 186.634 108.166 186.744C106.888 186.805 105.675 186.574 104.527 186.051C103.378 185.529 102.383 184.537 101.539 183.076C100.238 180.822 99.8252 178.604 100.302 176.424C100.793 174.193 101.947 172.087 103.767 170.105C105.568 168.091 107.818 166.305 110.517 164.747C112.422 163.647 114.349 162.767 116.297 162.108C118.259 161.399 120.106 160.968 121.838 160.815L122.358 170.295C120.534 170.289 118.866 170.554 117.354 171.088C115.873 171.604 114.578 172.183 113.466 172.825C112.228 173.54 111.453 174.177 111.142 174.738C110.812 175.267 110.739 175.691 110.922 176.008C111.142 176.389 111.625 176.492 112.37 176.315C113.115 176.139 114.025 175.846 115.101 175.437C116.159 174.996 117.317 174.581 118.575 174.193C119.847 173.756 121.121 173.507 122.399 173.446C123.658 173.354 124.862 173.57 126.011 174.092C127.159 174.615 128.155 175.606 128.998 177.067C130.245 179.226 130.623 181.421 130.133 183.652C129.674 185.864 128.544 187.977 126.743 189.991C124.955 191.954 122.728 193.706 120.061 195.246Z" fill="white" fill-opacity="0.3"/>
<path d="M169.952 166.823C166.522 168.803 163.164 169.916 159.877 170.162C156.571 170.377 153.563 169.786 150.85 168.388C148.151 166.94 145.949 164.74 144.244 161.786C142.558 158.865 141.517 155.889 141.121 152.857C140.757 149.807 141.015 146.843 141.893 143.964C142.772 141.086 144.238 138.419 146.292 135.963C148.359 133.457 150.981 131.287 154.156 129.454C157.649 127.437 160.971 126.26 164.121 125.924C167.285 125.536 170.268 125.973 173.07 127.234L168.623 138.122C166.737 137.348 165.044 137.055 163.544 137.244C162.025 137.401 160.472 137.937 158.885 138.854C157.424 139.697 156.253 140.712 155.371 141.899C154.471 143.053 153.859 144.339 153.533 145.754C153.221 147.12 153.2 148.551 153.47 150.046C153.741 151.541 154.307 153.035 155.168 154.527C155.92 155.829 156.866 156.807 158.006 157.461C159.177 158.098 160.459 158.374 161.85 158.29C163.273 158.188 164.747 157.697 166.271 156.817C167.541 156.084 168.692 155.144 169.724 153.998C170.738 152.82 171.609 151.322 172.337 149.505L181.196 155.059C180.183 157.338 178.719 159.495 176.805 161.532C174.872 163.538 172.587 165.301 169.952 166.823ZM170.775 158.789L165.985 144.662L175.749 139.025L181.196 155.059L170.775 158.789ZM198.665 149.864C196.95 150.854 195.001 151.365 192.818 151.398C190.617 151.398 188.463 150.821 186.357 149.666C184.264 148.461 182.475 146.573 180.99 144.001C179.743 141.842 178.963 139.646 178.648 137.414C178.334 135.183 178.426 133.033 178.926 130.966C179.44 128.849 180.312 126.949 181.541 125.265C182.784 123.531 184.342 122.124 186.216 121.042C188.248 119.869 190.249 119.264 192.218 119.228C194.187 119.192 196.058 119.975 197.829 121.577C199.614 123.129 201.227 125.776 202.667 129.517C203.836 132.568 204.467 135.421 204.561 138.077C204.686 140.714 204.267 143.031 203.303 145.027C202.338 147.023 200.792 148.636 198.665 149.864ZM197.818 139.048C198.771 138.498 199.459 137.783 199.883 136.904C200.288 135.992 200.424 134.982 200.292 133.873C200.192 132.745 199.793 131.578 199.096 130.372C198.4 129.165 197.482 128.382 196.343 128.024C195.237 127.646 194.08 127.806 192.873 128.503C191.952 129.035 191.273 129.765 190.836 130.695C190.413 131.575 190.251 132.578 190.352 133.706C190.484 134.815 190.899 135.973 191.595 137.179C192.292 138.386 193.194 139.178 194.3 139.555C195.439 139.914 196.612 139.745 197.818 139.048ZM204.963 145.593L203.642 141.656L199.905 131.112L195.841 120.883L194.493 116.898L205.258 110.683L215.108 139.735L204.963 145.593ZM243.227 88.1267C245.227 86.9717 247.24 86.4238 249.264 86.483C251.27 86.5104 253.129 87.2367 254.84 88.6617C256.534 90.0549 257.89 92.2569 258.908 95.2677L264.356 111.302L253.591 117.517L248.703 103.001C248.122 101.262 247.408 100.172 246.56 99.7297C245.694 99.256 244.832 99.2666 243.975 99.7616C242.99 100.33 242.335 101.174 242.008 102.295C241.662 103.383 241.801 104.87 242.423 106.754L247.303 121.147L236.539 127.362L231.651 112.846C231.07 111.107 230.356 110.017 229.508 109.575C228.642 109.101 227.78 109.112 226.923 109.607C225.938 110.175 225.276 111.044 224.935 112.215C224.608 113.335 224.774 114.869 225.433 116.817L230.251 130.992L219.487 137.207L209.636 108.155L219.782 102.298L221.849 108.408L220.167 109.125C220.205 106.478 220.816 104.199 221.999 102.288C223.163 100.345 224.635 98.8608 226.413 97.8342C227.842 97.0092 229.341 96.525 230.909 96.3815C232.491 96.188 234.041 96.4153 235.558 97.0635C237.057 97.6799 238.39 98.8155 239.557 100.47L236.224 101.188C236.107 98.4186 236.647 95.9057 237.842 93.6492C239.019 91.3608 240.814 89.52 243.227 88.1267ZM284.714 100.183C281.856 101.833 279.064 102.789 276.336 103.052C273.64 103.296 271.166 102.861 268.915 101.748C266.663 100.634 264.831 98.8552 263.42 96.4101C261.77 93.5522 260.961 90.611 260.993 87.5864C261.025 84.5619 261.872 81.702 263.533 79.0067C265.227 76.2931 267.693 74.0013 270.932 72.1313C273.726 70.518 276.392 69.6352 278.929 69.4829C281.466 69.3306 283.754 69.8093 285.791 70.9191C287.829 72.0288 289.499 73.7109 290.801 75.9655C291.259 76.7593 291.645 77.574 291.958 78.4094C292.302 79.2265 292.597 80.0302 292.842 80.8205L272.598 92.508L270.601 86.7387L284.891 78.4887L281.211 82.455C280.878 81.2922 280.367 80.444 279.678 79.9104C279.002 79.3267 278.237 79.0277 277.382 79.0133C276.508 78.9671 275.611 79.2099 274.69 79.7416C273.388 80.4932 272.558 81.4384 272.199 82.577C271.841 83.7155 271.807 84.9414 272.1 86.2544C272.424 87.5492 272.934 88.7999 273.631 90.0065C274.566 91.626 275.664 92.5375 276.925 92.7411C278.199 92.8946 279.677 92.4856 281.36 91.5139C282.345 90.9456 283.246 90.2343 284.066 89.3802C284.867 88.4943 285.506 87.5114 285.983 86.4314L294.228 90.3719C293.147 92.6052 291.775 94.5192 290.113 96.1139C288.483 97.6902 286.683 99.0467 284.714 100.183ZM310.586 85.2463C308.268 86.5846 305.933 87.6365 303.58 88.402C301.241 89.1173 299.308 89.4716 297.779 89.4647L297.26 79.9845C299.02 80.0267 300.829 79.7867 302.687 79.2645C304.558 78.6922 306.224 77.9844 307.685 77.1411C308.891 76.4444 309.653 75.8566 309.969 75.3776C310.299 74.8486 310.363 74.4094 310.161 74.0601C309.941 73.6791 309.468 73.5925 308.741 73.8004C307.996 73.9765 307.078 74.2944 305.989 74.7541C304.931 75.1954 303.773 75.6099 302.515 75.9975C301.257 76.3852 299.983 76.6341 298.691 76.7445C297.414 76.8048 296.201 76.5737 295.052 76.0512C293.904 75.5288 292.908 74.5372 292.065 73.0765C290.763 70.8219 290.351 68.6044 290.828 66.4237C291.318 64.1931 292.473 62.0867 294.292 60.1048C296.093 58.0911 298.344 56.3051 301.043 54.7468C302.948 53.6468 304.875 52.7673 306.823 52.1082C308.784 51.3991 310.631 50.9679 312.363 50.8147L312.883 60.2949C311.059 60.2894 309.391 60.5538 307.879 61.0881C306.399 61.604 305.103 62.1829 303.992 62.8245C302.753 63.5395 301.978 64.1774 301.667 64.7382C301.337 65.2672 301.264 65.6905 301.448 66.0081C301.668 66.3891 302.15 66.4916 302.895 66.3154C303.64 66.1393 304.551 65.8464 305.627 65.4369C306.685 64.9956 307.842 64.5811 309.101 64.1935C310.372 63.7557 311.647 63.5067 312.924 63.4465C314.184 63.3545 315.388 63.5697 316.536 64.0921C317.684 64.6146 318.68 65.6062 319.524 67.0669C320.77 69.2261 321.148 71.4211 320.658 73.6518C320.2 75.8642 319.07 77.9772 317.269 79.9909C315.481 81.9545 313.253 83.7063 310.586 85.2463Z" fill="white" fill-opacity="0.3"/>
</g>
<defs>
<linearGradient id="paint0_linear_1_9775" x1="195" y1="5" x2="5" y2="195" gradientUnits="userSpaceOnUse">
<stop stop-color="#00B3ED"/>
<stop offset="1" stop-color="#DB09DF"/>
</linearGradient>
</defs>
</svg>
