<svg width="14" height="16" viewBox="0 0 14 16" fill="none" xmlns="http://www.w3.org/2000/svg">
<path fill-rule="evenodd" clip-rule="evenodd" d="M7.00023 2.05C5.776 2.05 4.78356 3.04243 4.78356 4.26666V6.48333H9.21689V4.26666C9.21689 3.04243 8.22446 2.05 7.00023 2.05ZM10.3836 6.48333V4.26666C10.3836 2.3981 8.86879 0.883331 7.00023 0.883331C5.13166 0.883331 3.61689 2.3981 3.61689 4.26666V6.48333H2.33356C1.49593 6.48333 0.816895 7.16237 0.816895 8V13.6C0.816895 14.4376 1.49593 15.1167 2.33356 15.1167H11.6669C12.5045 15.1167 13.1836 14.4376 13.1836 13.6V8C13.1836 7.16237 12.5045 6.48333 11.6669 6.48333H10.3836ZM2.33356 7.65C2.14026 7.65 1.98356 7.8067 1.98356 8V13.6C1.98356 13.7933 2.14026 13.95 2.33356 13.95H11.6669C11.8602 13.95 12.0169 13.7933 12.0169 13.6V8C12.0169 7.8067 11.8602 7.65 11.6669 7.65H2.33356Z" fill="#C5D0EC"/>
</svg>
